<svg width="23" height="20" viewBox="0 0 23 20" xmlns="http://www.w3.org/2000/svg">
<path d="M11.1111 0C5 0 0 3.97778 0 8.88889C0.0278983 10.0697 0.316252 11.2297 0.844456 12.2861C1.37266 13.3425 2.12768 14.2692 3.05556 15C3.05556 15.6667 2.58889 17.4111 0 20C2.63333 19.8778 5.15556 18.8889 7.18889 17.2222C8.45556 17.5889 9.78889 17.7778 11.1111 17.7778C17.2222 17.7778 22.2222 13.8 22.2222 8.88889C22.2222 3.97778 17.2222 0 11.1111 0ZM11.1111 15.5556C6.2 15.5556 2.22222 12.5667 2.22222 8.88889C2.22222 5.21111 6.2 2.22222 11.1111 2.22222C16.0222 2.22222 20 5.21111 20 8.88889C20 12.5667 16.0222 15.5556 11.1111 15.5556Z" fill="#005FB3"/>
</svg>
