<svg width="80" height="61" viewBox="0 0 80 61" fill="none" xmlns="http://www.w3.org/2000/svg">
<rect x="22" y="4.5" width="49" height="49" fill="#3E3D3C" stroke="#42FF00"/>
<path d="M0 45.5L57.5 11V61H7.5L0 45.5Z" fill="#3E3D3C"/>
<path d="M64.5 1H74.5L80 28.5L54 16L64.5 1Z" fill="#3E3D3C"/>
<path d="M57.996 16.872C57.196 16.616 56.348 16.392 55.452 16.2C54.556 15.976 53.564 15.8 52.476 15.672C51.42 15.512 50.3 15.432 49.116 15.432C47.196 15.432 45.564 15.848 44.22 16.68C42.876 17.512 41.772 18.584 40.908 19.896C40.076 21.176 39.468 22.616 39.084 24.216C38.7 25.816 38.508 27.4 38.508 28.968C38.508 30.952 38.78 32.76 39.324 34.392C39.9 35.992 40.668 37.368 41.628 38.52C42.62 39.64 43.756 40.504 45.036 41.112C46.348 41.72 47.724 42.024 49.164 42.024C50.508 42.024 51.74 41.96 52.86 41.832C53.98 41.672 54.94 41.512 55.74 41.352C56.668 41.16 57.5 40.936 58.236 40.68L59.052 44.088C58.188 44.376 57.228 44.632 56.172 44.856C55.276 45.048 54.236 45.224 53.052 45.384C51.868 45.544 50.572 45.624 49.164 45.624C46.636 45.624 44.412 45.208 42.492 44.376C40.604 43.544 39.02 42.392 37.74 40.92C36.492 39.416 35.548 37.656 34.908 35.64C34.268 33.592 33.948 31.352 33.948 28.92C33.948 26.136 34.332 23.688 35.1 21.576C35.868 19.432 36.924 17.64 38.268 16.2C39.612 14.76 41.212 13.672 43.068 12.936C44.924 12.2 46.956 11.832 49.164 11.832C50.508 11.832 51.756 11.912 52.908 12.072C54.092 12.2 55.164 12.376 56.124 12.6C57.116 12.824 58.028 13.064 58.86 13.32L57.996 16.872Z" fill="#3E3D3C"/>
<path d="M57.996 16.872L57.6912 17.8244L58.7139 18.1517L58.9677 17.1084L57.996 16.872ZM55.452 16.2L55.2095 17.1701L55.2259 17.1743L55.2425 17.1778L55.452 16.2ZM52.476 15.672L52.3262 16.6607L52.3426 16.6632L52.3592 16.6652L52.476 15.672ZM44.22 16.68L44.7464 17.5303L44.7464 17.5303L44.22 16.68ZM40.908 19.896L40.0728 19.346L40.0696 19.351L40.908 19.896ZM39.084 24.216L38.1116 23.9826L38.1116 23.9826L39.084 24.216ZM39.324 34.392L38.3753 34.7082L38.3791 34.7195L38.3831 34.7307L39.324 34.392ZM41.628 38.52L40.8598 39.1602L40.8694 39.1718L40.8794 39.183L41.628 38.52ZM45.036 41.112L44.6069 42.0153L44.6155 42.0193L45.036 41.112ZM52.86 41.832L52.9735 42.8255L52.9875 42.8239L53.0014 42.8219L52.86 41.832ZM55.74 41.352L55.9361 42.3326L55.9426 42.3313L55.74 41.352ZM58.236 40.68L59.2085 40.4471L58.9512 39.3725L57.9075 39.7355L58.236 40.68ZM59.052 44.088L59.3682 45.0367L60.238 44.7468L60.0245 43.8551L59.052 44.088ZM56.172 44.856L55.9645 43.8778L55.9625 43.8782L56.172 44.856ZM53.052 45.384L53.1859 46.375L53.052 45.384ZM42.492 44.376L42.0887 45.2911L42.0944 45.2936L42.492 44.376ZM37.74 40.92L36.9704 41.5586L36.9778 41.5675L36.9854 41.5762L37.74 40.92ZM34.908 35.64L33.9535 35.9383L33.9549 35.9426L34.908 35.64ZM35.1 21.576L36.0398 21.9177L36.0414 21.9132L35.1 21.576ZM38.268 16.2L37.5369 15.5177L37.5369 15.5177L38.268 16.2ZM43.068 12.936L42.6994 12.0064L42.6994 12.0064L43.068 12.936ZM52.908 12.072L52.7704 13.0625L52.7854 13.0646L52.8005 13.0662L52.908 12.072ZM56.124 12.6L55.8968 13.5739L55.9037 13.5754L56.124 12.6ZM58.86 13.32L59.8317 13.5564L60.0543 12.6412L59.1541 12.3642L58.86 13.32ZM58.3008 15.9196C57.4668 15.6527 56.5868 15.4205 55.6615 15.2222L55.2425 17.1778C56.1092 17.3635 56.9252 17.5793 57.6912 17.8244L58.3008 15.9196ZM55.6945 15.2299C54.7504 14.9938 53.7156 14.8109 52.5928 14.6788L52.3592 16.6652C53.4124 16.7891 54.3616 16.9582 55.2095 17.1701L55.6945 15.2299ZM52.6258 14.6833C51.5152 14.515 50.3448 14.432 49.116 14.432V16.432C50.2552 16.432 51.3248 16.509 52.3262 16.6607L52.6258 14.6833ZM49.116 14.432C47.0501 14.432 45.2267 14.8807 43.6936 15.8297L44.7464 17.5303C45.9013 16.8153 47.3419 16.432 49.116 16.432V14.432ZM43.6936 15.8297C42.2269 16.7377 41.0172 17.9119 40.0728 19.346L41.7432 20.446C42.5268 19.2561 43.5251 18.2863 44.7464 17.5303L43.6936 15.8297ZM40.0696 19.351C39.1708 20.7337 38.5201 22.2805 38.1116 23.9826L40.0564 24.4494C40.4159 22.9515 40.9812 21.6183 41.7464 20.441L40.0696 19.351ZM38.1116 23.9826C37.7102 25.6553 37.508 27.3176 37.508 28.968H39.508C39.508 27.4824 39.6898 25.9767 40.0564 24.4494L38.1116 23.9826ZM37.508 28.968C37.508 31.0433 37.7926 32.96 38.3753 34.7082L40.2727 34.0758C39.7674 32.56 39.508 30.8607 39.508 28.968H37.508ZM38.3831 34.7307C38.9934 36.426 39.8158 37.9074 40.8598 39.1602L42.3962 37.8798C41.5202 36.8286 40.8066 35.558 40.2649 34.0533L38.3831 34.7307ZM40.8794 39.183C41.9556 40.3981 43.1986 41.3463 44.6069 42.0153L45.4651 40.2087C44.3134 39.6617 43.2844 38.8819 42.3766 37.857L40.8794 39.183ZM44.6155 42.0193C46.0587 42.6881 47.5782 43.024 49.164 43.024V41.024C47.8699 41.024 46.6373 40.7519 45.4565 40.2047L44.6155 42.0193ZM49.164 43.024C50.539 43.024 51.8095 42.9586 52.9735 42.8255L52.7465 40.8385C51.6705 40.9614 50.477 41.024 49.164 41.024V43.024ZM53.0014 42.8219C54.1333 42.6603 55.1126 42.4973 55.9361 42.3326L55.5439 40.3714C54.7674 40.5267 53.8267 40.6837 52.7186 40.8421L53.0014 42.8219ZM55.9426 42.3313C56.9045 42.1322 57.7797 41.8975 58.5645 41.6245L57.9075 39.7355C57.2203 39.9745 56.4315 40.1878 55.5374 40.3727L55.9426 42.3313ZM57.2635 40.9129L58.0795 44.3209L60.0245 43.8551L59.2085 40.4471L57.2635 40.9129ZM58.7358 43.1393C57.9132 43.4135 56.9902 43.6602 55.9645 43.8778L56.3795 45.8342C57.4658 45.6038 58.4628 45.3385 59.3682 45.0367L58.7358 43.1393ZM55.9625 43.8782C55.0977 44.0635 54.0839 44.2355 52.9181 44.393L53.1859 46.375C54.3881 46.2125 55.4543 46.0325 56.3815 45.8338L55.9625 43.8782ZM52.9181 44.393C51.7855 44.5461 50.5349 44.624 49.164 44.624V46.624C50.6091 46.624 51.9505 46.5419 53.1859 46.375L52.9181 44.393ZM49.164 44.624C46.7449 44.624 44.6608 44.226 42.8896 43.4584L42.0944 45.2936C44.1632 46.19 46.5271 46.624 49.164 46.624V44.624ZM42.8953 43.4609C41.1341 42.6848 39.6724 41.6183 38.4946 40.2638L36.9854 41.5762C38.3676 43.1657 40.0739 44.4032 42.0887 45.2911L42.8953 43.4609ZM38.5096 40.2814C37.3504 38.8845 36.4654 37.2408 35.8611 35.3374L33.9549 35.9426C34.6306 38.0712 35.6336 39.9475 36.9704 41.5586L38.5096 40.2814ZM35.8625 35.3417C35.2564 33.4022 34.948 31.2641 34.948 28.92H32.948C32.948 31.4399 33.2796 33.7818 33.9535 35.9383L35.8625 35.3417ZM34.948 28.92C34.948 26.2258 35.3199 23.8976 36.0398 21.9177L34.1602 21.2343C33.3441 23.4784 32.948 26.0462 32.948 28.92H34.948ZM36.0414 21.9132C36.7706 19.8775 37.7613 18.2085 38.9991 16.8823L37.5369 15.5177C36.0867 17.0715 34.9654 18.9865 34.1586 21.2388L36.0414 21.9132ZM38.9991 16.8823C40.2406 15.5521 41.7163 14.5478 43.4366 13.8656L42.6994 12.0064C40.7077 12.7962 38.9834 13.9679 37.5369 15.5177L38.9991 16.8823ZM43.4366 13.8656C45.1635 13.1808 47.0689 12.832 49.164 12.832V10.832C46.8431 10.832 44.6845 11.2192 42.6994 12.0064L43.4366 13.8656ZM49.164 12.832C50.4689 12.832 51.6704 12.9097 52.7704 13.0625L53.0456 11.0815C51.8416 10.9143 50.5471 10.832 49.164 10.832V12.832ZM52.8005 13.0662C53.9522 13.1907 54.9833 13.3607 55.8968 13.5738L56.3512 11.6262C55.3447 11.3913 54.2318 11.2093 53.0155 11.0778L52.8005 13.0662ZM55.9037 13.5754C56.8749 13.7947 57.7619 14.0284 58.5659 14.2758L59.1541 12.3642C58.2941 12.0996 57.3571 11.8533 56.3443 11.6246L55.9037 13.5754ZM57.8883 13.0836L57.0243 16.6356L58.9677 17.1084L59.8317 13.5564L57.8883 13.0836Z" fill="#42FF00"/>
</svg>
