<svg width="40" height="40" viewBox="0 0 40 40" fill="none" xmlns="http://www.w3.org/2000/svg">
<circle cx="20" cy="20" r="20" fill="#0077B5"/>
<path fill-rule="evenodd" clip-rule="evenodd" d="M16.9148 14.3628H21.3716V16.5828C22.0136 15.306 23.66 14.1588 26.1332 14.1588C30.8744 14.1588 32 16.7004 32 21.3636V30H27.2V22.4256C27.2 19.77 26.558 18.2724 24.9236 18.2724C22.6568 18.2724 21.7148 19.8864 21.7148 22.4244V30H16.9148V14.3628ZM8.684 29.796H13.484V14.1588H8.684V29.796ZM14.1716 9.06C14.1718 9.46233 14.092 9.86068 13.9369 10.2319C13.7817 10.6031 13.5544 10.9398 13.268 11.2224C12.6877 11.7991 11.9022 12.122 11.084 12.12C10.2673 12.1195 9.48357 11.7974 8.9024 11.2236C8.61705 10.9401 8.39046 10.603 8.23561 10.2317C8.08076 9.86045 8.00069 9.46227 8 9.06C8 8.2476 8.324 7.47 8.9036 6.8964C9.48426 6.32179 10.2683 5.99964 11.0852 6C11.9036 6 12.6884 6.3228 13.268 6.8964C13.8464 7.47 14.1716 8.2476 14.1716 9.06Z" fill="white"/>
</svg>
