<svg width="13" height="20" viewBox="0 0 13 20"  xmlns="http://www.w3.org/2000/svg">
<path d="M4.54546 17.2727H8.18182V16.3636H4.54546V17.2727ZM1.81818 20C1.31818 20 0.890001 19.8218 0.533638 19.4655C0.177274 19.1091 -0.000604517 18.6812 1.54345e-06 18.1818V1.81818C1.54345e-06 1.31818 0.178183 0.890001 0.534547 0.533638C0.89091 0.177274 1.31879 -0.000604517 1.81818 1.54345e-06H10.9091C11.4091 1.54345e-06 11.8373 0.178183 12.1936 0.534547C12.55 0.890911 12.7279 1.31879 12.7273 1.81818V18.1818C12.7273 18.6818 12.5491 19.11 12.1927 19.4664C11.8364 19.8227 11.4085 20.0006 10.9091 20H1.81818ZM1.81818 15.4545V18.1818H10.9091V15.4545H1.81818ZM1.81818 13.6364H10.9091V4.54546H1.81818V13.6364ZM1.81818 2.72727H10.9091V1.81818H1.81818V2.72727Z" fill="#005FB3"/>
</svg>
